<svg width="337" height="336" viewBox="0 0 337 336" fill="none" xmlns="http://www.w3.org/2000/svg">
<rect width="17.9583" height="17.9583" transform="translate(83.4584 92.271)" fill="#52C41A"/>
<rect width="17.9583" height="17.9583" transform="translate(101.417 92.271)" fill="#73D13D"/>
<rect width="17.9583" height="17.9583" transform="translate(119.375 92.271)" fill="#73D13D"/>
<rect width="17.9583" height="17.9583" transform="translate(137.333 92.271)" fill="#73D13D"/>
<rect width="17.9583" height="17.9583" transform="translate(155.292 92.271)" fill="#73D13D"/>
<rect width="17.9583" height="17.9583" transform="translate(173.25 92.271)" fill="#73D13D"/>
<rect width="17.9583" height="17.9583" transform="translate(191.208 92.271)" fill="#73D13D"/>
<rect width="17.9583" height="17.9583" transform="translate(209.167 92.271)" fill="#73D13D"/>
<rect width="17.9583" height="17.9583" transform="translate(227.125 92.271)" fill="#95DE64"/>
<rect width="17.9583" height="17.9583" transform="translate(83.4584 110.229)" fill="#52C41A"/>
<rect width="17.9583" height="17.9583" transform="translate(65.5001 92.271)" fill="#389E0D"/>
<rect width="17.9583" height="17.9583" transform="translate(65.5001 110.229)" fill="#389E0D"/>
<rect width="17.9583" height="17.9583" transform="translate(101.417 110.229)" fill="#73D13D"/>
<rect width="17.9583" height="17.9583" transform="translate(83.4584 74.3123)" fill="#389E0D"/>
<rect width="17.9583" height="17.9583" transform="translate(101.417 74.3123)" fill="#52C41A"/>
<rect width="17.9583" height="17.9583" transform="translate(119.375 110.229)" fill="#73D13D"/>
<rect width="17.9583" height="17.9583" transform="translate(119.375 74.3123)" fill="#73D13D"/>
<rect width="17.9583" height="17.9583" transform="translate(137.333 110.229)" fill="#135200"/>
<rect width="17.9583" height="17.9583" transform="translate(137.333 74.3123)" fill="#73D13D"/>
<rect width="17.9583" height="17.9583" transform="translate(155.292 110.229)" fill="#135200"/>
<rect width="17.9583" height="17.9583" transform="translate(101.417 56.3542)" fill="#389E0D"/>
<rect width="17.9583" height="17.9583" transform="translate(119.375 56.3542)" fill="#73D13D"/>
<rect width="17.9583" height="17.9583" transform="translate(137.333 56.3542)" fill="#73D13D"/>
<rect width="17.9583" height="17.9583" transform="translate(155.292 56.3542)" fill="#73D13D"/>
<rect width="17.9583" height="17.9583" transform="translate(173.25 56.3542)" fill="#73D13D"/>
<rect width="17.9583" height="17.9583" transform="translate(137.333 56.3542)" fill="#73D13D"/>
<rect width="17.9583" height="17.9583" transform="translate(155.292 38.3958)" fill="#95DE64"/>
<rect width="17.9583" height="17.9583" transform="translate(155.292 56.3542)" fill="#73D13D"/>
<rect width="17.9583" height="17.9583" transform="translate(173.25 56.3542)" fill="#73D13D"/>
<rect width="17.9583" height="17.9583" transform="translate(191.208 56.3542)" fill="#73D13D"/>
<rect width="17.9583" height="17.9583" transform="translate(155.292 74.3123)" fill="#73D13D"/>
<rect width="17.9583" height="17.9583" transform="translate(173.25 110.229)" fill="#135200"/>
<rect width="17.9583" height="17.9583" transform="translate(173.25 74.3123)" fill="#73D13D"/>
<rect width="17.9583" height="17.9583" transform="translate(191.208 110.229)" fill="#135200"/>
<rect width="17.9583" height="17.9583" transform="translate(191.208 74.3123)" fill="#73D13D"/>
<rect width="17.9583" height="17.9583" transform="translate(209.167 110.229)" fill="#135200"/>
<rect width="17.9583" height="17.9583" transform="translate(209.167 74.3123)" fill="#95DE64"/>
<rect width="17.9583" height="17.9583" transform="translate(227.125 110.229)" fill="#135200"/>
<rect width="17.9583" height="17.9583" transform="translate(245.083 110.229)" fill="#135200"/>
<rect width="17.9583" height="17.9583" transform="translate(263.042 110.229)" fill="#135200"/>
</svg>
